<svg version="1.1" id="Layer_1" xmlns="http://www.w3.org/2000/svg" xmlns:xlink="http://www.w3.org/1999/xlink" x="0px" y="0px"
	 width="100%" viewBox="0 0 200 200" enable-background="new 0 0 200 200" xml:space="preserve">
<path fill="#FEFDFD" opacity="1.000000" stroke="none" 
	d="
M132.000000,201.000000 
	C88.000000,201.000000 44.500004,201.000000 1.000006,201.000000 
	C1.000004,134.333344 1.000004,67.666679 1.000002,1.000015 
	C67.666656,1.000010 134.333313,1.000010 200.999969,1.000005 
	C200.999985,67.666649 200.999985,134.333298 201.000000,200.999969 
	C178.166672,201.000000 155.333328,201.000000 132.000000,201.000000 
M75.100319,69.043083 
	C75.094376,68.785500 75.088425,68.527916 75.555336,68.367485 
	C75.769371,68.191254 75.983406,68.015030 76.197449,67.838806 
	C76.074509,67.732147 75.967110,67.563179 75.826324,67.528069 
	C73.241394,66.883263 70.404137,63.072048 68.008461,68.821648 
	C68.939110,70.244400 69.869759,71.667145 70.898705,73.677017 
	C70.911865,74.073708 70.925034,74.470406 70.165886,74.939789 
	C68.423058,75.578094 66.680222,76.216393 64.259697,77.117561 
	C59.907085,82.163155 55.554474,87.208740 51.201862,92.254333 
	C52.125057,93.132248 53.048252,94.010162 53.971447,94.888077 
	C56.662045,91.353867 60.152359,88.149345 61.788506,84.180458 
	C63.081589,81.043755 64.399178,82.244530 66.266975,83.240883 
	C67.330528,85.151085 68.394089,87.061287 69.307648,89.707916 
	C68.916100,90.541786 68.524551,91.375656 68.028847,92.781219 
	C68.334877,93.196587 68.640915,93.611954 68.969734,94.023811 
	C68.969734,94.023811 68.985893,94.048355 69.265961,94.806419 
	C68.270187,100.428009 69.105385,106.825981 62.756027,110.493195 
	C65.229279,110.493195 67.702522,110.493195 70.499435,110.493195 
	C70.363640,109.292053 70.112579,108.497124 70.216888,107.751938 
	C70.721191,104.149124 68.514091,100.462318 71.410507,96.990166 
	C72.244888,96.988289 73.079277,96.986412 74.051025,97.547615 
	C74.168205,97.701218 74.285393,97.854828 74.685043,98.827637 
	C74.772919,101.256828 74.860802,103.686012 74.661568,106.739685 
	C74.478142,107.958023 74.294708,109.176361 74.111282,110.394691 
	C74.587662,110.516495 75.064049,110.638290 75.540428,110.760086 
	C76.043762,109.421570 76.547096,108.083054 77.530174,106.358231 
	C77.701790,106.009834 77.873405,105.661438 78.313362,104.747643 
	C78.352646,104.339943 78.391937,103.932251 78.805977,102.928963 
	C78.288696,101.832214 77.771423,100.735458 77.621910,99.268967 
	C77.504349,98.971169 77.386787,98.673370 77.867195,97.761887 
	C77.758286,97.495750 77.649384,97.229622 77.772873,96.463715 
	C77.270721,95.320442 76.768578,94.177170 76.193100,92.445404 
	C76.118057,91.652435 76.043022,90.859467 76.257484,89.421516 
	C76.846428,87.654106 77.435371,85.886703 78.271400,83.714905 
	C78.387375,83.404770 78.588905,83.167213 79.608459,83.012360 
	C80.339058,83.011345 81.069664,83.010330 82.065224,83.681381 
	C83.193642,89.056396 87.870369,89.773056 91.336060,91.753510 
	C90.671265,92.783836 90.006470,93.814171 89.341682,94.844505 
	C89.626701,95.028175 89.911728,95.211838 90.196754,95.395508 
	C91.108070,94.627556 92.019379,93.859604 93.093468,93.364021 
	C93.200592,93.402069 93.307724,93.440109 93.414848,93.478157 
	C93.310120,93.293152 93.205383,93.108154 92.758530,91.992073 
	C92.557098,91.729858 92.355667,91.467651 92.047607,90.706390 
	C91.324844,89.341980 90.622345,87.966354 89.875229,86.615410 
	C88.153336,83.501869 86.238708,80.640152 81.587166,80.997696 
	C81.587166,80.997696 81.150215,81.010948 81.085434,80.256454 
	C80.046371,78.573624 79.007317,76.890785 77.193520,75.060715 
	C76.143921,75.005272 75.094322,74.949837 74.041206,74.309288 
	C74.061310,73.920364 74.081413,73.531441 74.201447,73.106750 
	C74.201447,73.106750 74.233070,73.005432 74.933090,73.017555 
	C74.989090,72.050949 75.045097,71.084343 75.174568,69.946884 
	C75.174568,69.946884 75.044456,69.813988 75.100319,69.043083 
M187.847214,152.188736 
	C191.171265,149.484222 191.453232,146.407822 189.228424,142.288559 
	C189.620667,141.238235 189.777878,139.466583 190.441833,139.250259 
	C196.447235,137.293671 193.755188,133.879868 191.501175,130.128448 
	C187.009766,130.118332 185.124313,127.732704 185.395447,123.063927 
	C185.466705,121.836746 184.587021,120.139305 183.592468,119.386971 
	C182.676117,118.693794 180.954651,118.656799 179.701660,118.905113 
	C177.377563,119.365692 175.136414,120.244980 172.100250,121.185501 
	C172.100250,118.073898 172.100250,116.619263 172.817795,115.054977 
	C173.271973,114.872704 173.745361,114.727348 174.177307,114.502380 
	C178.011444,112.505363 182.083450,110.971924 180.250092,104.970909 
	C179.324936,101.942657 184.362427,95.743660 187.719131,94.873131 
	C193.816528,93.291847 190.391510,88.355942 190.973312,85.023018 
	C191.196259,83.745766 188.877274,81.297958 187.201218,80.569740 
	C183.874084,79.124161 178.192825,71.983101 179.613266,69.447021 
	C181.784958,65.569633 179.506561,63.847931 176.776749,62.606098 
	C173.773697,61.239948 170.701324,57.702404 167.144104,62.057957 
	C165.332611,64.276001 156.189087,65.364578 154.785004,63.255928 
	C150.874908,57.383728 147.283997,61.448788 143.833313,63.308041 
	C141.241226,64.704674 139.993546,66.496330 140.526917,70.465424 
	C140.962524,73.707100 137.944275,78.000252 135.361176,80.824730 
	C133.965652,82.350655 130.093262,81.518852 130.314819,85.406273 
	C130.465729,88.053909 130.389343,90.721062 130.682571,93.349594 
	C130.760025,94.043861 131.714020,94.902382 132.462692,95.218582 
	C138.870773,97.925064 141.107086,101.910629 140.632904,109.245529 
	C140.556625,110.425247 141.636749,111.978416 142.628906,112.851372 
	C143.814056,113.894135 145.479782,114.390717 147.280762,115.759659 
	C150.367874,116.827675 153.316116,117.716614 155.294464,113.771217 
	C155.613144,113.135658 157.351639,113.060661 158.449432,112.997269 
	C161.100006,112.844208 163.759796,112.851273 166.908371,113.200897 
	C167.486496,114.081650 168.064621,114.962410 167.777985,116.022346 
	C165.499481,116.610832 163.455032,116.953613 163.605759,120.409706 
	C163.662140,121.702652 159.966629,124.543785 159.526672,124.262512 
	C154.357895,120.958084 153.427841,126.067039 150.342026,127.839905 
	C149.923599,126.199898 149.505188,124.559898 149.012268,122.142990 
	C148.268509,119.390091 146.509720,118.810333 143.762970,119.062912 
	C138.934174,119.506950 133.935989,112.555725 136.527649,108.569847 
	C139.149323,104.537811 136.049637,103.479858 134.024765,102.216423 
	C131.426422,100.595177 128.568192,97.763214 125.284790,101.546272 
	C121.562943,105.834488 115.688362,104.567192 112.900314,99.409782 
	C112.106819,97.941940 109.782906,96.756676 108.012924,96.512100 
	C106.182098,96.259125 104.176575,97.329025 102.238335,97.781136 
	C99.355370,98.453606 97.230293,99.408409 98.927017,103.110023 
	C99.305695,103.936165 98.656746,105.687202 97.916100,106.493759 
	C94.757347,109.933708 91.288345,112.569580 86.446144,108.164520 
	C85.996880,108.317177 85.547615,108.469841 84.487000,109.045654 
	C83.762314,109.066826 83.037636,109.088005 82.071419,108.576263 
	C81.391891,108.364403 80.712364,108.152542 80.032837,107.940681 
	C79.977531,108.247414 79.922218,108.554146 79.866913,108.860878 
	C80.652893,108.963989 81.438881,109.067093 82.395676,109.935089 
	C82.113274,110.887665 81.988617,111.926933 81.521004,112.777710 
	C79.559464,116.346550 77.445793,119.545464 82.819244,122.488914 
	C85.394005,123.899315 83.364677,132.386520 80.390160,132.794617 
	C75.476379,133.468826 75.523666,136.531158 76.150864,140.018478 
	C76.773651,143.481339 77.315445,146.606369 82.508675,146.240479 
	C87.972031,145.855591 91.156036,151.992264 89.118629,157.135254 
	C88.602852,158.437195 88.965134,160.983353 89.916077,161.794189 
	C92.328094,163.850784 95.302635,165.247635 98.051926,166.908661 
	C98.005234,166.320648 97.958542,165.732620 97.911842,165.144608 
	C100.355324,163.941605 102.869148,161.636993 105.226181,161.787521 
	C108.989372,162.027847 113.681862,162.476730 114.422791,168.723282 
	C118.359955,168.260193 122.322830,167.929581 126.203674,167.176315 
	C126.723457,167.075424 126.828697,164.838760 127.161682,162.822357 
	C128.608154,159.762650 130.054626,156.702942 131.546814,153.546555 
	C133.898483,154.645004 134.927002,155.121384 135.951981,155.605255 
	C137.113632,156.153656 138.272095,156.708801 139.515945,157.300995 
	C140.651810,156.082596 141.627838,154.987961 142.654175,153.942703 
	C147.968643,148.530304 147.970306,147.972839 142.847809,142.949829 
	C142.415833,142.526230 142.291016,141.789383 142.350449,140.442352 
	C142.825485,136.142914 143.720917,132.256332 149.262131,131.996780 
	C149.873932,131.968124 150.424179,130.625443 151.736328,130.145309 
	C155.178375,132.925644 154.937332,135.703995 151.503815,138.091324 
	C150.418976,138.845612 149.491776,141.009460 149.770355,142.238541 
	C150.108841,143.731781 151.804260,146.039398 152.903473,146.034256 
	C156.658356,146.016693 158.346100,149.435516 157.619202,150.937912 
	C155.245239,155.844467 158.563980,156.607712 161.368179,158.140564 
	C166.339279,153.766632 169.089767,153.794510 171.964828,159.764694 
	C174.575546,159.140823 177.186279,158.516953 179.797012,157.893082 
	C178.582825,154.084534 181.729553,153.287827 184.715454,152.179367 
	C185.751892,152.392807 186.788330,152.606247 187.812698,153.087036 
	C187.812698,153.087036 187.562363,153.173874 187.562363,153.173874 
	C187.562363,153.173874 187.698212,152.900833 187.847214,152.188736 
M53.401970,65.688202 
	C57.554947,64.454185 61.710564,63.228714 65.849899,61.950516 
	C65.994156,61.905968 66.058884,61.325893 66.021202,61.012173 
	C65.523964,56.872860 68.317520,57.058540 71.107101,56.970329 
	C72.461517,56.927498 73.799881,56.377346 75.817284,56.317665 
	C76.522903,56.980347 77.563431,57.512859 77.879784,58.326828 
	C79.934006,63.612293 85.860252,66.461868 91.293961,64.629417 
	C94.128586,63.673481 102.207504,70.014679 100.645615,71.924347 
	C96.271408,77.272507 102.052383,80.750763 102.355865,85.138588 
	C102.404106,85.836113 103.934723,86.990494 104.764565,86.977104 
	C108.228752,86.921181 108.263168,89.341782 109.410065,92.284386 
	C115.494438,92.284386 121.578804,92.284386 128.442673,92.284386 
	C127.948990,85.491615 127.490700,79.185745 127.078995,72.091476 
	C125.968605,63.040707 120.271751,57.197968 113.002419,52.749485 
	C104.643372,47.634148 96.064018,42.874981 87.528679,38.052567 
	C77.798386,32.555008 67.780815,32.234344 58.009228,37.589790 
	C48.243378,42.942101 38.676750,48.683361 29.232954,54.590122 
	C21.056877,59.703972 16.701939,67.378876 16.500307,77.055969 
	C16.288750,87.209450 16.270218,97.375053 16.507425,107.527420 
	C16.730911,117.092545 20.745504,124.914543 28.950697,130.055664 
	C38.442192,136.002747 48.115162,141.665558 57.810913,147.276260 
	C59.533382,148.273010 61.751461,148.413300 64.133873,149.659531 
	C71.882759,152.166580 72.443436,151.756332 72.443985,143.577652 
	C72.444260,139.456192 72.535957,135.331238 72.379707,131.215714 
	C72.340370,130.179413 71.506386,129.173279 70.267143,128.004257 
	C68.850517,126.759590 67.608719,125.175751 65.982567,124.337593 
	C62.032574,122.301636 56.651070,118.041969 54.093559,119.288589 
	C47.667263,122.420990 47.071606,116.631844 44.397327,114.578178 
	C43.439224,113.842422 44.496334,110.482460 44.633682,108.320221 
	C45.111000,107.478424 44.483013,106.524002 44.080624,105.482422 
	C42.783772,102.125603 42.934490,97.919113 37.681507,97.198166 
	C36.860615,97.085510 36.319756,92.557808 36.284504,90.062675 
	C36.265923,88.747414 37.293259,86.773087 38.412251,86.202805 
	C42.290058,84.226494 46.361271,76.885384 44.571507,73.277153 
	C43.120350,70.351578 43.698925,68.693779 45.834240,66.545860 
	C48.127529,64.239029 50.240032,63.150196 53.401970,65.688202 
z"/>
<path fill="#FE4515" opacity="1.000000" stroke="none" 
	d="
M63.740685,148.949081 
	C61.751461,148.413300 59.533382,148.273010 57.810913,147.276260 
	C48.115162,141.665558 38.442192,136.002747 28.950697,130.055664 
	C20.745504,124.914543 16.730911,117.092545 16.507425,107.527420 
	C16.270218,97.375053 16.288750,87.209450 16.500307,77.055969 
	C16.701939,67.378876 21.056877,59.703972 29.232954,54.590122 
	C38.676750,48.683361 48.243378,42.942101 58.009228,37.589790 
	C67.780815,32.234344 77.798386,32.555008 87.528679,38.052567 
	C96.064018,42.874981 104.643372,47.634148 113.002419,52.749485 
	C120.271751,57.197968 125.968605,63.040707 126.988266,72.957504 
	C126.897530,79.395340 126.897530,84.967148 126.897530,90.547371 
	C120.324715,90.948761 114.450844,91.307465 108.576965,91.666168 
	C108.263168,89.341782 108.228752,86.921181 104.764565,86.977104 
	C103.934723,86.990494 102.404106,85.836113 102.355865,85.138588 
	C102.052383,80.750763 96.271408,77.272507 100.645615,71.924347 
	C102.207504,70.014679 94.128586,63.673481 91.293961,64.629417 
	C85.860252,66.461868 79.934006,63.612293 77.879784,58.326828 
	C77.563431,57.512859 76.522903,56.980347 75.225983,55.852646 
	C70.684288,55.456478 65.218361,52.239342 64.769264,59.969810 
	C64.745689,60.375584 63.858356,60.851963 63.287270,61.085281 
	C59.931267,62.456387 56.549747,63.765026 53.176826,65.094727 
	C50.240032,63.150196 48.127529,64.239029 45.834240,66.545860 
	C43.698925,68.693779 43.120350,70.351578 44.571507,73.277153 
	C46.361271,76.885384 42.290058,84.226494 38.412251,86.202805 
	C37.293259,86.773087 36.265923,88.747414 36.284504,90.062675 
	C36.319756,92.557808 36.860615,97.085510 37.681507,97.198166 
	C42.934490,97.919113 42.783772,102.125603 44.080624,105.482422 
	C44.483013,106.524002 45.111000,107.478424 44.633682,108.320221 
	C44.496334,110.482460 43.439224,113.842422 44.397327,114.578178 
	C47.071606,116.631844 47.667263,122.420990 54.093559,119.288589 
	C56.651070,118.041969 62.032574,122.301636 65.982567,124.337593 
	C67.608719,125.175751 68.850517,126.759590 70.645691,128.537308 
	C71.024231,135.641281 71.024231,142.212204 71.024231,148.949081 
	C68.040314,148.949081 65.890495,148.949081 63.740685,148.949081 
z"/>
<path fill="#45C0F9" opacity="1.000000" stroke="none" 
	d="
M114.202515,168.041748 
	C113.681862,162.476730 108.989372,162.027847 105.226181,161.787521 
	C102.869148,161.636993 100.355324,163.941605 97.911842,165.144608 
	C97.958542,165.732620 98.005234,166.320648 98.051926,166.908661 
	C95.302635,165.247635 92.328094,163.850784 89.916077,161.794189 
	C88.965134,160.983353 88.602852,158.437195 89.118629,157.135254 
	C91.156036,151.992264 87.972031,145.855591 82.508675,146.240479 
	C77.315445,146.606369 76.773651,143.481339 76.150864,140.018478 
	C75.523666,136.531158 75.476379,133.468826 80.390160,132.794617 
	C83.364677,132.386520 85.394005,123.899315 82.819244,122.488914 
	C77.445793,119.545464 79.559464,116.346550 81.521004,112.777710 
	C81.988617,111.926933 82.113274,110.887665 82.304932,109.497894 
	C82.214188,109.060692 82.312950,109.109184 82.312950,109.109184 
	C83.037636,109.088005 83.762314,109.066826 85.081314,108.846283 
	C86.043373,108.549217 86.411125,108.451523 86.778877,108.353828 
	C91.288345,112.569580 94.757347,109.933708 97.916100,106.493759 
	C98.656746,105.687202 99.305695,103.936165 98.927017,103.110023 
	C97.230293,99.408409 99.355370,98.453606 102.238335,97.781136 
	C104.176575,97.329025 106.182098,96.259125 108.012924,96.512100 
	C109.782906,96.756676 112.106819,97.941940 112.900314,99.409782 
	C115.688362,104.567192 121.562943,105.834488 125.284790,101.546272 
	C128.568192,97.763214 131.426422,100.595177 134.024765,102.216423 
	C136.049637,103.479858 139.149323,104.537811 136.527649,108.569847 
	C133.935989,112.555725 138.934174,119.506950 143.762970,119.062912 
	C146.509720,118.810333 148.268509,119.390091 149.004150,122.970840 
	C148.608658,126.408409 150.794022,129.820892 146.233643,131.065887 
	C141.987335,132.225143 140.422577,136.407761 142.023499,141.198059 
	C142.291016,141.789383 142.415833,142.526230 142.847809,142.949829 
	C147.970306,147.972839 147.968643,148.530304 142.654175,153.942703 
	C141.627838,154.987961 140.651810,156.082596 139.515945,157.300995 
	C138.272095,156.708801 137.113632,156.153656 135.951981,155.605255 
	C134.927002,155.121384 133.898483,154.645004 131.546814,153.546555 
	C130.054626,156.702942 128.608154,159.762650 126.830124,163.423309 
	C122.399887,165.363419 118.301201,166.702591 114.202515,168.041748 
M103.994476,145.516220 
	C104.303856,145.664001 104.613228,145.811783 105.423668,146.157455 
	C106.256538,146.129517 107.089417,146.101562 108.065170,146.819458 
	C113.427521,150.194260 121.112282,148.418213 125.840767,142.711334 
	C130.147827,137.513077 130.406952,127.925385 126.205376,123.876900 
	C125.496140,123.193504 124.141930,123.179474 123.054634,122.146507 
	C120.770271,120.443878 118.485909,118.741257 115.717659,116.324615 
	C113.581215,116.198868 111.411758,115.772552 109.314407,116.002861 
	C102.601677,116.739990 97.026314,122.386063 97.109779,129.034317 
	C97.115395,130.357574 96.938713,131.712051 97.159119,132.998505 
	C97.984154,137.814056 98.333649,142.954590 104.004570,144.981186 
	C104.004570,144.981186 103.966125,144.977280 103.994476,145.516220 
z"/>
<path fill="#FCF904" opacity="1.000000" stroke="none" 
	d="
M146.937332,115.123878 
	C145.479782,114.390717 143.814056,113.894135 142.628906,112.851372 
	C141.636749,111.978416 140.556625,110.425247 140.632904,109.245529 
	C141.107086,101.910629 138.870773,97.925064 132.462692,95.218582 
	C131.714020,94.902382 130.760025,94.043861 130.682571,93.349594 
	C130.389343,90.721062 130.465729,88.053909 130.314819,85.406273 
	C130.093262,81.518852 133.965652,82.350655 135.361176,80.824730 
	C137.944275,78.000252 140.962524,73.707100 140.526917,70.465424 
	C139.993546,66.496330 141.241226,64.704674 143.833313,63.308041 
	C147.283997,61.448788 150.874908,57.383728 154.785004,63.255928 
	C156.189087,65.364578 165.332611,64.276001 167.144104,62.057957 
	C170.701324,57.702404 173.773697,61.239948 176.776749,62.606098 
	C179.506561,63.847931 181.784958,65.569633 179.613266,69.447021 
	C178.192825,71.983101 183.874084,79.124161 187.201218,80.569740 
	C188.877274,81.297958 191.196259,83.745766 190.973312,85.023018 
	C190.391510,88.355942 193.816528,93.291847 187.719131,94.873131 
	C184.362427,95.743660 179.324936,101.942657 180.250092,104.970909 
	C182.083450,110.971924 178.011444,112.505363 174.177307,114.502380 
	C173.745361,114.727348 173.271973,114.872704 172.139313,115.083328 
	C170.521484,115.355499 169.582108,115.599327 168.642746,115.843155 
	C168.064621,114.962410 167.486496,114.081650 166.451752,112.639938 
	C161.953827,112.041878 157.314651,110.785835 154.071793,112.376488 
	C151.730316,113.525002 149.660950,114.977615 146.937332,115.123878 
M149.265076,78.644630 
	C149.181061,79.115982 149.097046,79.587334 148.996994,80.003868 
	C148.996994,80.003868 149.048279,80.028961 148.457291,79.447121 
	C147.983597,81.085045 147.509903,82.722969 147.122437,85.203209 
	C147.089828,86.030296 147.034409,86.857216 147.028214,87.684502 
	C146.979675,94.158432 151.799179,100.338196 157.925858,101.671021 
	C163.972092,102.986343 170.463669,99.801010 173.258636,94.147408 
	C176.125153,88.349060 174.674438,82.221275 169.185349,77.806999 
	C167.681442,76.597565 165.802200,75.854866 163.761230,74.219864 
	C158.152527,72.175575 153.880936,73.205597 152.003082,76.997223 
	C152.003082,76.997223 152.058334,77.011230 151.263504,76.642235 
	C151.179321,77.114258 151.095139,77.586281 150.999603,77.999596 
	C150.999603,77.999596 151.058304,78.010994 150.263916,77.642838 
	C150.179550,78.114670 150.095200,78.586494 149.999557,78.999565 
	C149.999557,78.999565 150.058319,79.010834 149.265076,78.644630 
z"/>
<path fill="#4F4F4F" opacity="1.000000" stroke="none" 
	d="
M168.210358,115.932755 
	C169.582108,115.599327 170.521484,115.355499 171.780548,115.138153 
	C172.100250,116.619263 172.100250,118.073898 172.100250,121.185501 
	C175.136414,120.244980 177.377563,119.365692 179.701660,118.905113 
	C180.954651,118.656799 182.676117,118.693794 183.592468,119.386971 
	C184.587021,120.139305 185.466705,121.836746 185.395447,123.063927 
	C185.124313,127.732704 187.009766,130.118332 191.768585,130.799255 
	C192.053207,133.929153 192.150986,136.088913 189.097260,137.439224 
	C187.949692,137.946655 185.681168,141.051605 188.971298,142.993546 
	C191.453232,146.407822 191.171265,149.484222 187.794510,152.513184 
	C187.741806,152.837646 187.824768,152.819687 187.824768,152.819687 
	C186.788330,152.606247 185.751892,152.392807 184.297302,151.697296 
	C181.948975,152.179611 178.425049,153.052826 178.363785,154.124084 
	C178.094925,158.825134 174.795731,158.480972 171.857300,159.032242 
	C169.089767,153.794510 166.339279,153.766632 161.368179,158.140564 
	C158.563980,156.607712 155.245239,155.844467 157.619202,150.937912 
	C158.346100,149.435516 156.658356,146.016693 152.903473,146.034256 
	C151.804260,146.039398 150.108841,143.731781 149.770355,142.238541 
	C149.491776,141.009460 150.418976,138.845612 151.503815,138.091324 
	C154.937332,135.703995 155.178375,132.925644 151.375549,129.735291 
	C151.022995,128.947266 151.031235,128.569260 151.039459,128.191269 
	C153.427841,126.067039 154.357895,120.958084 159.526672,124.262512 
	C159.966629,124.543785 163.662140,121.702652 163.605759,120.409706 
	C163.455032,116.953613 165.499481,116.610832 168.210358,115.932755 
M175.204910,137.995071 
	C172.551880,137.421951 169.898849,136.848816 166.903625,136.201767 
	C170.639923,130.333801 171.794937,130.023239 176.140564,133.538757 
	C176.333786,133.550110 176.526993,133.561447 176.720215,133.572784 
	C176.703918,133.463379 176.711624,133.271240 176.667282,133.258377 
	C176.431137,133.189819 176.181961,133.166138 176.218765,132.455627 
	C178.657059,129.253082 174.995392,129.841400 173.772385,128.078888 
	C169.860535,125.571098 166.610062,127.152794 163.638367,129.833435 
	C160.423523,132.733429 159.872803,136.165482 162.322159,140.597748 
	C163.927246,144.460815 165.712662,148.071274 171.788254,146.877197 
	C173.138916,146.465652 174.489594,146.054108 176.580170,145.767670 
	C181.864594,142.763580 182.773758,137.992020 178.627472,132.369141 
	C178.343994,133.225739 178.060501,134.082352 177.194534,135.177673 
	C177.147049,135.789474 177.099548,136.401276 176.563843,137.206192 
	C176.385895,137.497864 176.207962,137.789536 175.204910,137.995071 
z"/>
<path fill="#F5471B" opacity="1.000000" stroke="none" 
	d="
M69.457642,88.971489 
	C68.394089,87.061287 67.330528,85.151085 66.169746,82.511826 
	C65.694145,80.140076 65.315773,78.497383 64.937393,76.854691 
	C66.680222,76.216393 68.423058,75.578094 70.734467,75.176102 
	C72.216942,75.239746 73.130836,75.067078 74.044724,74.894394 
	C75.094322,74.949837 76.143921,75.005272 77.590240,75.510513 
	C77.709991,78.681519 77.433029,81.402710 77.128418,84.467934 
	C76.030029,86.206924 74.959290,87.601891 73.518356,88.999649 
	C71.917984,88.992119 70.687813,88.981804 69.457642,88.971489 
z"/>
<path fill="#ED5027" opacity="1.000000" stroke="none" 
	d="
M64.598541,76.986130 
	C65.315773,78.497383 65.694145,80.140076 66.103287,82.141418 
	C64.399178,82.244530 63.081589,81.043755 61.788506,84.180458 
	C60.152359,88.149345 56.662045,91.353867 53.971447,94.888077 
	C53.048252,94.010162 52.125057,93.132248 51.201862,92.254333 
	C55.554474,87.208740 59.907085,82.163155 64.598541,76.986130 
z"/>
<path fill="#A74830" opacity="1.000000" stroke="none" 
	d="
M70.564674,96.919632 
	C68.514091,100.462318 70.721191,104.149124 70.216888,107.751938 
	C70.112579,108.497124 70.363640,109.292053 70.499435,110.493195 
	C67.702522,110.493195 65.229279,110.493195 62.756027,110.493195 
	C69.105385,106.825981 68.270187,100.428009 69.402931,94.476120 
	C69.985245,94.663895 70.430580,95.181969 70.668930,95.971985 
	C70.496193,96.469162 70.530434,96.694397 70.564674,96.919632 
z"/>
<path fill="#ED5027" opacity="1.000000" stroke="none" 
	d="
M82.024109,81.010689 
	C86.238708,80.640152 88.153336,83.501869 89.875229,86.615410 
	C90.622345,87.966354 91.324844,89.341980 92.078171,90.984985 
	C92.108742,91.263580 91.980324,91.233795 91.980324,91.233795 
	C87.870369,89.773056 83.193642,89.056396 81.985649,83.014008 
	C81.945419,81.901314 81.984764,81.456001 82.024109,81.010689 
z"/>
<path fill="#622616" opacity="1.000000" stroke="none" 
	d="
M53.289398,65.391464 
	C56.549747,63.765026 59.931267,62.456387 63.287270,61.085281 
	C63.858356,60.851963 64.745689,60.375584 64.769264,59.969810 
	C65.218361,52.239342 70.684288,55.456478 74.890091,55.722248 
	C73.799881,56.377346 72.461517,56.927498 71.107101,56.970329 
	C68.317520,57.058540 65.523964,56.872860 66.021202,61.012173 
	C66.058884,61.325893 65.994156,61.905968 65.849899,61.950516 
	C61.710564,63.228714 57.554947,64.454185 53.289398,65.391464 
z"/>
<path fill="#ED5027" opacity="1.000000" stroke="none" 
	d="
M70.875916,95.700050 
	C70.430580,95.181969 69.985245,94.663895 69.262894,94.097092 
	C68.985893,94.048355 68.969734,94.023811 68.943497,93.758377 
	C68.655838,93.065140 68.394417,92.637329 68.132996,92.209526 
	C68.524551,91.375656 68.916100,90.541786 69.382645,89.339706 
	C70.687813,88.981804 71.917984,88.992119 73.668159,89.275238 
	C74.781433,89.720856 75.374710,89.893677 75.967979,90.066498 
	C76.043022,90.859467 76.118057,91.652435 76.082840,93.077362 
	C74.273689,94.372894 72.574799,95.036476 70.875916,95.700050 
z"/>
<path fill="#6C6B19" opacity="1.000000" stroke="none" 
	d="
M147.109039,115.441772 
	C149.660950,114.977615 151.730316,113.525002 154.071793,112.376488 
	C157.314651,110.785835 161.953827,112.041878 166.205505,112.436386 
	C163.759796,112.851273 161.100006,112.844208 158.449432,112.997269 
	C157.351639,113.060661 155.613144,113.135658 155.294464,113.771217 
	C153.316116,117.716614 150.367874,116.827675 147.109039,115.441772 
z"/>
<path fill="#224758" opacity="1.000000" stroke="none" 
	d="
M150.690735,128.015594 
	C151.031235,128.569260 151.022995,128.947266 151.008850,129.608734 
	C150.424179,130.625443 149.873932,131.968124 149.262131,131.996780 
	C143.720917,132.256332 142.825485,136.142914 142.186981,140.820206 
	C140.422577,136.407761 141.987335,132.225143 146.233643,131.065887 
	C150.794022,129.820892 148.608658,126.408409 149.041382,123.359283 
	C149.505188,124.559898 149.923599,126.199898 150.690735,128.015594 
z"/>
<path fill="#44160A" opacity="1.000000" stroke="none" 
	d="
M108.993515,91.975281 
	C114.450844,91.307465 120.324715,90.948761 126.897530,90.547371 
	C126.897530,84.967148 126.897530,79.395340 126.964966,73.351700 
	C127.490700,79.185745 127.948990,85.491615 128.442673,92.284386 
	C121.578804,92.284386 115.494438,92.284386 108.993515,91.975281 
z"/>
<path fill="#252525" opacity="1.000000" stroke="none" 
	d="
M171.911072,159.398468 
	C174.795731,158.480972 178.094925,158.825134 178.363785,154.124084 
	C178.425049,153.052826 181.948975,152.179611 183.921234,151.537903 
	C181.729553,153.287827 178.582825,154.084534 179.797012,157.893066 
	C177.186279,158.516953 174.575546,159.140823 171.911072,159.398468 
z"/>
<path fill="#5F1907" opacity="1.000000" stroke="none" 
	d="
M63.937279,149.304306 
	C65.890495,148.949081 68.040314,148.949081 71.024231,148.949081 
	C71.024231,142.212204 71.024231,135.641281 71.030907,128.611816 
	C71.506386,129.173279 72.340370,130.179413 72.379707,131.215714 
	C72.535957,135.331238 72.444260,139.456192 72.443985,143.577652 
	C72.443436,151.756332 71.882759,152.166580 63.937279,149.304306 
z"/>
<path fill="#303030" opacity="1.000000" stroke="none" 
	d="
M189.099854,142.641052 
	C185.681168,141.051605 187.949692,137.946655 189.097260,137.439224 
	C192.150986,136.088913 192.053207,133.929153 192.061508,131.031509 
	C193.755188,133.879868 196.447235,137.293671 190.441833,139.250259 
	C189.777878,139.466583 189.620667,141.238235 189.099854,142.641052 
z"/>
<path fill="#365766" opacity="1.000000" stroke="none" 
	d="
M114.312653,168.382507 
	C118.301201,166.702591 122.399887,165.363419 126.812241,163.807693 
	C126.828697,164.838760 126.723457,167.075424 126.203674,167.176315 
	C122.322830,167.929581 118.359955,168.260193 114.312653,168.382507 
z"/>
<path fill="#F5471B" opacity="1.000000" stroke="none" 
	d="
M70.800407,73.089897 
	C69.869759,71.667145 68.939110,70.244400 68.400711,68.486343 
	C69.141571,68.228798 69.490166,68.306549 69.854973,68.543533 
	C69.820946,68.943443 69.897697,69.132713 70.462502,69.488449 
	C71.382019,69.699028 71.940483,69.691742 72.802979,69.803146 
	C73.752838,69.885895 74.398643,69.849945 75.044456,69.813988 
	C75.044456,69.813988 75.174568,69.946884 75.078613,70.334999 
	C74.732796,71.483887 74.482933,72.244659 74.233063,73.005432 
	C74.233070,73.005432 74.201447,73.106750 73.740417,73.081947 
	C72.453056,73.068062 71.626732,73.078979 70.800407,73.089897 
z"/>
<path fill="#ED5027" opacity="1.000000" stroke="none" 
	d="
M77.269226,98.375572 
	C77.386787,98.673370 77.504349,98.971169 77.401314,99.836563 
	C77.198280,100.915253 77.215836,101.426361 77.157181,102.317856 
	C77.402321,103.569855 77.723663,104.441444 78.045013,105.313042 
	C77.873405,105.661438 77.701790,106.009834 76.958763,106.389435 
	C75.907791,106.318832 75.428230,106.217018 74.948685,106.115204 
	C74.860802,103.686012 74.772919,101.256828 74.904274,98.415222 
	C75.838745,98.127060 76.553986,98.251320 77.269226,98.375572 
z"/>
<path fill="#ED5027" opacity="1.000000" stroke="none" 
	d="
M77.156067,84.123909 
	C77.433029,81.402710 77.709991,78.681519 77.977608,75.584137 
	C79.007317,76.890785 80.046371,78.573624 80.778893,80.730377 
	C79.940231,81.803612 79.408112,82.402924 78.875999,83.002243 
	C78.588905,83.167213 78.387375,83.404770 77.930580,83.896317 
	C77.589760,84.077721 77.156075,84.123909 77.156067,84.123909 
z"/>
<path fill="#714136" opacity="1.000000" stroke="none" 
	d="
M69.838768,68.384293 
	C69.490166,68.306549 69.141571,68.228798 68.525711,68.130280 
	C70.404137,63.072048 73.241394,66.883263 75.826324,67.528069 
	C75.967110,67.563179 76.074509,67.732147 76.197449,67.838806 
	C75.983406,68.015030 75.769371,68.191254 75.260162,68.068321 
	C74.660538,67.832146 74.356087,67.895134 73.663979,67.933258 
	C72.514267,67.991348 71.752213,68.074303 70.691544,68.159431 
	C70.208206,68.235832 70.023483,68.310066 69.838768,68.384293 
z"/>
<path fill="#F8F6F5" opacity="1.000000" stroke="none" 
	d="
M70.668930,95.971985 
	C72.574799,95.036476 74.273689,94.372894 76.119507,93.371613 
	C76.768578,94.177170 77.270721,95.320442 77.202621,96.686638 
	C75.726128,96.934555 74.819893,96.959541 73.913658,96.984528 
	C73.079277,96.986412 72.244888,96.988289 70.987595,96.954895 
	C70.530434,96.694397 70.496193,96.469162 70.668930,95.971985 
z"/>
<path fill="#F8F6F5" opacity="1.000000" stroke="none" 
	d="
M74.805122,106.427444 
	C75.428230,106.217018 75.907791,106.318832 76.718887,106.582581 
	C76.547096,108.083054 76.043762,109.421570 75.540428,110.760086 
	C75.064049,110.638290 74.587662,110.516495 74.111282,110.394691 
	C74.294708,109.176361 74.478142,107.958023 74.805122,106.427444 
z"/>
<path fill="#F8F6F5" opacity="1.000000" stroke="none" 
	d="
M77.128418,84.467934 
	C77.156075,84.123909 77.589760,84.077721 77.807037,84.098511 
	C77.435371,85.886703 76.846428,87.654106 76.112732,89.744003 
	C75.374710,89.893677 74.781433,89.720856 74.038361,89.272446 
	C74.959290,87.601891 76.030029,86.206924 77.128418,84.467934 
z"/>
<path fill="#ED5027" opacity="1.000000" stroke="none" 
	d="
M70.849556,73.383453 
	C71.626732,73.078979 72.453056,73.068062 73.690445,73.099831 
	C74.081413,73.531441 74.061310,73.920364 74.042969,74.601845 
	C73.130836,75.067078 72.216942,75.239746 71.120621,75.139755 
	C70.925034,74.470406 70.911865,74.073708 70.849556,73.383453 
z"/>
<path fill="#F8F6F5" opacity="1.000000" stroke="none" 
	d="
M91.658188,91.493652 
	C91.980324,91.233795 92.108742,91.263580 92.131493,91.234512 
	C92.355667,91.467651 92.557098,91.729858 92.884346,92.496964 
	C93.010162,93.001846 92.930695,93.091652 92.930695,93.091652 
	C92.019379,93.859604 91.108070,94.627556 90.196754,95.395508 
	C89.911728,95.211838 89.626701,95.028175 89.341682,94.844505 
	C90.006470,93.814171 90.671265,92.783836 91.658188,91.493652 
z"/>
<path fill="#F8F6F5" opacity="1.000000" stroke="none" 
	d="
M79.242233,83.007301 
	C79.408112,82.402924 79.940231,81.803612 80.811279,81.107620 
	C81.150215,81.010948 81.587166,80.997696 81.805634,81.004196 
	C81.984764,81.456001 81.945419,81.901314 81.853165,82.677971 
	C81.069664,83.010330 80.339058,83.011345 79.242233,83.007301 
z"/>
<path fill="#714136" opacity="1.000000" stroke="none" 
	d="
M77.233391,101.937462 
	C77.215836,101.426361 77.198280,100.915253 77.217438,100.021431 
	C77.771423,100.735458 78.288696,101.832214 78.424728,102.956131 
	C77.773453,102.634682 77.503418,102.286072 77.233391,101.937462 
z"/>
<path fill="#F8F6F5" opacity="1.000000" stroke="none" 
	d="
M82.219528,109.115448 
	C81.438881,109.067093 80.652893,108.963989 79.866913,108.860878 
	C79.922218,108.554146 79.977531,108.247414 80.032837,107.940681 
	C80.712364,108.152542 81.391891,108.364403 82.192184,108.842728 
	C82.312950,109.109184 82.214188,109.060692 82.219528,109.115448 
z"/>
<path fill="#44160A" opacity="1.000000" stroke="none" 
	d="
M74.583076,73.011490 
	C74.482933,72.244659 74.732796,71.483887 75.041878,70.420425 
	C75.045097,71.084343 74.989090,72.050949 74.583076,73.011490 
z"/>
<path fill="#F3CBC4" opacity="1.000000" stroke="none" 
	d="
M74.051628,67.958122 
	C74.356087,67.895134 74.660538,67.832146 75.023743,68.019745 
	C75.088425,68.527916 75.094376,68.785500 75.072388,69.428535 
	C74.398643,69.849945 73.752838,69.885895 73.096718,69.542419 
	C73.408150,68.761368 73.729889,68.359741 74.051628,67.958122 
z"/>
<path fill="#5F1907" opacity="1.000000" stroke="none" 
	d="
M77.157181,102.317856 
	C77.503418,102.286072 77.773453,102.634682 78.237350,103.253922 
	C78.391937,103.932251 78.352646,104.339943 78.179184,105.030342 
	C77.723663,104.441444 77.402321,103.569855 77.157181,102.317856 
z"/>
<path fill="#A74830" opacity="1.000000" stroke="none" 
	d="
M73.982346,97.266075 
	C74.819893,96.959541 75.726128,96.934555 77.086418,96.936523 
	C77.649384,97.229622 77.758286,97.495750 77.568207,98.068726 
	C76.553986,98.251320 75.838745,98.127060 74.763039,98.005615 
	C74.285393,97.854828 74.168205,97.701218 73.982346,97.266075 
z"/>
<path fill="#A74830" opacity="1.000000" stroke="none" 
	d="
M68.080917,92.495377 
	C68.394417,92.637329 68.655838,93.065140 68.932098,93.760132 
	C68.640915,93.611954 68.334877,93.196587 68.080917,92.495377 
z"/>
<path fill="#F7FAFB" opacity="1.000000" stroke="none" 
	d="
M86.612511,108.259171 
	C86.411125,108.451523 86.043373,108.549217 85.386978,108.634705 
	C85.547615,108.469841 85.996880,108.317177 86.612511,108.259171 
z"/>
<path fill="#F8F6F5" opacity="1.000000" stroke="none" 
	d="
M93.055405,92.962494 
	C93.205383,93.108154 93.310120,93.293152 93.414848,93.478157 
	C93.307724,93.440109 93.200592,93.402069 93.012085,93.227837 
	C92.930695,93.091652 93.010162,93.001846 93.055405,92.962494 
z"/>
<path fill="#252525" opacity="1.000000" stroke="none" 
	d="
M187.818726,152.953369 
	C187.824768,152.819687 187.741806,152.837646 187.720001,152.869232 
	C187.698212,152.900833 187.562363,153.173874 187.562363,153.173874 
	C187.562363,153.173874 187.812698,153.087036 187.818726,152.953369 
z"/>
<path fill="#F1F6F8" opacity="1.000000" stroke="none" 
	d="
M104.016525,145.016510 
	C98.333649,142.954590 97.984154,137.814056 97.159119,132.998505 
	C96.938713,131.712051 97.115395,130.357574 97.380859,128.465897 
	C101.387398,120.096489 107.774330,116.824898 116.201546,117.038628 
	C118.485909,118.741257 120.770271,120.443878 122.894592,122.770279 
	C122.144180,123.598824 121.553795,123.803589 120.633850,123.872070 
	C117.605942,122.398323 116.613930,123.030602 117.560783,126.054832 
	C118.065659,127.667381 118.449615,129.317795 118.926369,130.965240 
	C118.964600,130.979370 118.946281,130.899933 118.611229,130.925598 
	C118.005341,131.291916 117.734512,131.632553 117.482964,131.986877 
	C117.502251,132.000549 117.494820,131.953842 117.120224,131.926056 
	C116.154358,132.265396 115.563087,132.632538 114.982002,132.992615 
	C114.992188,132.985519 115.015358,132.976624 114.668983,132.890671 
	C113.539223,133.204697 112.755836,133.604660 111.980515,133.993347 
	C111.988586,133.982071 112.012848,133.968094 111.652565,133.889511 
	C108.438934,131.989029 108.380913,129.684631 110.490906,127.028702 
	C111.280090,125.543289 111.706833,124.097740 112.133568,122.652199 
	C111.752029,122.604942 111.370491,122.557686 110.988945,122.510429 
	C110.924568,122.992729 110.860191,123.475029 110.421982,123.979691 
	C108.439735,125.039093 105.444298,126.094490 105.457733,127.110062 
	C105.523697,132.091980 106.389954,137.063324 106.987465,142.013977 
	C107.001465,141.989563 107.048553,141.958740 106.724869,142.095520 
	C105.606293,143.160370 104.811417,144.088440 104.016525,145.016510 
M108.228699,121.116707 
	C107.609520,121.116707 106.990334,121.116707 106.371155,121.116707 
	C106.474487,121.513496 106.577827,121.910294 106.681160,122.307083 
	C107.369324,122.043037 108.057487,121.778999 108.228699,121.116707 
z"/>
<path fill="#F7FAFB" opacity="1.000000" stroke="none" 
	d="
M120.963409,124.008362 
	C121.553795,123.803589 122.144180,123.598824 122.910141,123.125114 
	C124.141930,123.179474 125.496140,123.193504 126.205376,123.876900 
	C130.406952,127.925385 130.147827,137.513077 125.840767,142.711334 
	C121.112282,148.418213 113.427521,150.194260 108.170326,146.224854 
	C107.866508,144.406403 107.457527,143.182571 107.048553,141.958740 
	C107.048553,141.958740 107.001465,141.989563 107.340935,141.989685 
	C108.693680,142.338455 109.706947,142.687134 111.040154,143.145905 
	C110.647507,141.705429 110.293617,140.407181 110.137512,138.804901 
	C112.309212,137.386902 114.165604,135.888733 116.282227,135.241119 
	C120.337120,134.000488 122.144867,131.082291 122.937439,127.349174 
	C123.071198,126.719147 121.785172,125.787682 121.090103,124.752029 
	C121.004517,124.341827 120.983963,124.175095 120.963409,124.008362 
z"/>
<path fill="#1E3F4F" opacity="1.000000" stroke="none" 
	d="
M115.959602,116.681625 
	C107.774330,116.824898 101.387398,120.096489 97.328979,128.036667 
	C97.026314,122.386063 102.601677,116.739990 109.314407,116.002861 
	C111.411758,115.772552 113.581215,116.198868 115.959602,116.681625 
z"/>
<path fill="#4BC0F4" opacity="1.000000" stroke="none" 
	d="
M106.724869,142.095520 
	C107.457527,143.182571 107.866508,144.406403 108.098885,145.851929 
	C107.089417,146.101562 106.256538,146.129517 105.132996,145.784973 
	C104.550262,145.267410 104.258194,145.122345 103.966125,144.977280 
	C103.966125,144.977280 104.004570,144.981186 104.010551,144.998840 
	C104.811417,144.088440 105.606293,143.160370 106.724869,142.095520 
z"/>
<path fill="#F1F6F8" opacity="1.000000" stroke="none" 
	d="
M103.980301,145.246750 
	C104.258194,145.122345 104.550262,145.267410 104.882462,145.686035 
	C104.613228,145.811783 104.303856,145.664001 103.980301,145.246750 
z"/>
<path fill="#FAF9F0" opacity="1.000000" stroke="none" 
	d="
M164.095200,74.897995 
	C165.802200,75.854866 167.681442,76.597565 169.185349,77.806999 
	C174.674438,82.221275 176.125153,88.349060 173.258636,94.147408 
	C170.463669,99.801010 163.972092,102.986343 157.925858,101.671021 
	C151.799179,100.338196 146.979675,94.158432 147.028214,87.684502 
	C147.034409,86.857216 147.089828,86.030296 147.388184,84.592285 
	C148.118698,82.663895 148.583481,81.346428 149.048279,80.028961 
	C149.048279,80.028961 148.996994,80.003868 149.283752,79.987350 
	C149.733109,79.650833 149.895706,79.330833 150.058319,79.010834 
	C150.058319,79.010834 149.999557,78.999565 150.282974,78.982338 
	C150.730362,78.647072 150.894333,78.329033 151.058289,78.010986 
	C151.058304,78.010994 150.999603,77.999596 151.283066,77.982422 
	C151.730453,77.647247 151.894394,77.329239 152.058334,77.011230 
	C152.058334,77.011230 152.003082,76.997223 152.403488,77.004608 
	C156.567657,76.307320 160.331436,75.602654 164.095200,74.897995 
M166.438416,95.069427 
	C167.280365,94.500862 168.122314,93.932297 168.964264,93.363731 
	C165.175293,88.982674 161.387283,84.600777 157.583328,80.232758 
	C157.546204,80.190132 157.297668,80.331612 156.901291,80.478508 
	C157.239670,81.537468 157.593765,82.645660 158.054382,84.087151 
	C156.577026,84.264839 155.444183,84.401093 153.927460,84.583519 
	C158.170364,88.113449 162.047241,91.338867 166.438416,95.069427 
z"/>
<path fill="#59580D" opacity="1.000000" stroke="none" 
	d="
M163.928223,74.558929 
	C160.331436,75.602654 156.567657,76.307320 152.414352,77.030945 
	C153.880936,73.205597 158.152527,72.175575 163.928223,74.558929 
z"/>
<path fill="#59580D" opacity="1.000000" stroke="none" 
	d="
M148.752777,79.738037 
	C148.583481,81.346428 148.118698,82.663895 147.345062,84.171127 
	C147.509903,82.722969 147.983597,81.085045 148.752777,79.738037 
z"/>
<path fill="#59580D" opacity="1.000000" stroke="none" 
	d="
M151.660919,76.826736 
	C151.894394,77.329239 151.730453,77.647247 151.288742,78.011780 
	C151.095139,77.586281 151.179321,77.114258 151.660919,76.826736 
z"/>
<path fill="#59580D" opacity="1.000000" stroke="none" 
	d="
M150.661102,77.826912 
	C150.894333,78.329033 150.730362,78.647072 150.288605,79.011719 
	C150.095200,78.586494 150.179550,78.114670 150.661102,77.826912 
z"/>
<path fill="#59580D" opacity="1.000000" stroke="none" 
	d="
M149.661682,78.827728 
	C149.895706,79.330833 149.733109,79.650833 149.291779,80.014755 
	C149.097046,79.587334 149.181061,79.115982 149.661682,78.827728 
z"/>
<path fill="#F3F3F3" opacity="1.000000" stroke="none" 
	d="
M177.052048,137.013077 
	C177.099548,136.401276 177.147049,135.789474 177.794815,134.912476 
	C178.616287,134.018158 178.837463,133.389023 179.058655,132.759888 
	C182.773758,137.992020 181.864594,142.763580 175.951660,145.499512 
	C173.879532,145.749664 172.435928,146.267990 170.992310,146.786301 
	C165.712662,148.071274 163.927246,144.460815 162.177612,139.892502 
	C162.573898,131.541641 165.079437,129.358490 173.949509,128.804108 
	C174.995392,129.841400 178.657059,129.253082 176.100571,132.773346 
	C175.982376,133.091064 176.012680,133.042084 176.012680,133.042084 
	C171.794937,130.023239 170.639923,130.333801 166.903625,136.201767 
	C169.898849,136.848816 172.551880,137.421951 175.727509,138.305725 
	C176.668900,139.187820 177.087708,139.759262 177.506516,140.330688 
	C177.881775,140.092758 178.257050,139.854828 178.632324,139.616898 
	C178.105560,138.748962 177.578812,137.881012 177.052048,137.013077 
M168.003830,141.453033 
	C167.864532,141.194473 167.725235,140.935928 167.585922,140.677368 
	C167.701263,141.132111 167.816620,141.586868 168.033234,142.602631 
	C168.347061,142.917923 168.660904,143.233200 168.974731,143.548492 
	C169.163712,143.343857 169.352707,143.139221 169.541702,142.934601 
	C169.055389,142.595428 168.569077,142.256256 168.003830,141.453033 
z"/>
<path fill="#252525" opacity="1.000000" stroke="none" 
	d="
M173.860947,128.441498 
	C165.079437,129.358490 162.573898,131.541641 162.001709,139.586426 
	C159.872803,136.165482 160.423523,132.733429 163.638367,129.833435 
	C166.610062,127.152794 169.860535,125.571098 173.860947,128.441498 
z"/>
<path fill="#EEEEEE" opacity="1.000000" stroke="none" 
	d="
M171.390289,146.831757 
	C172.435928,146.267990 173.879532,145.749664 175.581696,145.436951 
	C174.489594,146.054108 173.138916,146.465652 171.390289,146.831757 
z"/>
<path fill="#EEEEEE" opacity="1.000000" stroke="none" 
	d="
M176.807953,137.109634 
	C177.578812,137.881012 178.105560,138.748962 178.632324,139.616898 
	C178.257050,139.854828 177.881775,140.092758 177.506516,140.330688 
	C177.087708,139.759262 176.668900,139.187820 176.140060,138.348785 
	C176.207962,137.789536 176.385895,137.497864 176.807953,137.109634 
z"/>
<path fill="#EEEEEE" opacity="1.000000" stroke="none" 
	d="
M178.843063,132.564514 
	C178.837463,133.389023 178.616287,134.018158 178.086060,134.793121 
	C178.060501,134.082352 178.343994,133.225739 178.843063,132.564514 
z"/>
<path fill="#EEEEEE" opacity="1.000000" stroke="none" 
	d="
M175.959839,133.109009 
	C176.181961,133.166138 176.431137,133.189819 176.667282,133.258377 
	C176.711624,133.271240 176.703918,133.463379 176.720215,133.572784 
	C176.526993,133.561447 176.333786,133.550110 176.076630,133.290421 
	C176.012680,133.042084 175.982376,133.091064 175.959839,133.109009 
z"/>
<path fill="#FEFDFD" opacity="1.000000" stroke="none" 
	d="
M73.663979,67.933258 
	C73.729889,68.359741 73.408150,68.761368 72.792679,69.423721 
	C71.940483,69.691742 71.382019,69.699028 70.756149,69.264877 
	C70.789200,68.601379 70.889671,68.379318 70.990150,68.157257 
	C71.752213,68.074303 72.514267,67.991348 73.663979,67.933258 
z"/>
<path fill="#F3CBC4" opacity="1.000000" stroke="none" 
	d="
M70.691544,68.159424 
	C70.889671,68.379318 70.789200,68.601379 70.395088,69.047012 
	C69.897697,69.132713 69.820946,68.943443 69.854973,68.543533 
	C70.023483,68.310066 70.208206,68.235832 70.691544,68.159424 
z"/>
<path fill="#4BC0F4" opacity="1.000000" stroke="none" 
	d="
M109.939735,139.108917 
	C110.293617,140.407181 110.647507,141.705429 111.040154,143.145905 
	C109.706947,142.687134 108.693680,142.338455 107.326935,142.014099 
	C106.389954,137.063324 105.523697,132.091980 105.457733,127.110062 
	C105.444298,126.094490 108.439735,125.039093 110.392624,124.306625 
	C110.534233,125.430321 110.331345,126.249443 110.128464,127.068558 
	C108.380913,129.684631 108.438934,131.989029 111.508881,134.202393 
	C110.310516,135.774658 107.321938,136.333099 109.939735,139.108917 
z"/>
<path fill="#224758" opacity="1.000000" stroke="none" 
	d="
M110.137512,138.804901 
	C107.321938,136.333099 110.310516,135.774658 111.869171,134.280975 
	C112.012848,133.968094 111.988586,133.982071 112.327499,134.047729 
	C113.449394,133.734467 114.232376,133.355545 115.015358,132.976624 
	C115.015358,132.976624 114.992188,132.985519 115.348099,133.037903 
	C116.300949,132.711472 116.897881,132.332657 117.494820,131.953842 
	C117.494820,131.953842 117.502251,132.000549 117.818359,131.943420 
	C118.405075,131.557510 118.675674,131.228714 118.946281,130.899933 
	C118.946281,130.899933 118.964600,130.979370 119.266968,130.822510 
	C120.097946,128.775604 120.626549,126.885544 121.155151,124.995483 
	C121.785172,125.787682 123.071198,126.719147 122.937439,127.349174 
	C122.144867,131.082291 120.337120,134.000488 116.282227,135.241119 
	C114.165604,135.888733 112.309212,137.386902 110.137512,138.804901 
z"/>
<path fill="#4BC0F4" opacity="1.000000" stroke="none" 
	d="
M121.090103,124.752029 
	C120.626549,126.885544 120.097946,128.775604 119.228745,130.808380 
	C118.449615,129.317795 118.065659,127.667381 117.560783,126.054832 
	C116.613930,123.030602 117.605942,122.398323 120.633850,123.872063 
	C120.983963,124.175095 121.004517,124.341827 121.090103,124.752029 
z"/>
<path fill="#365766" opacity="1.000000" stroke="none" 
	d="
M110.490906,127.028702 
	C110.331345,126.249443 110.534233,125.430321 110.766464,124.284264 
	C110.860191,123.475029 110.924568,122.992729 110.988945,122.510429 
	C111.370491,122.557686 111.752029,122.604942 112.133568,122.652199 
	C111.706833,124.097740 111.280090,125.543289 110.490906,127.028702 
z"/>
<path fill="#365766" opacity="1.000000" stroke="none" 
	d="
M108.487175,121.315834 
	C108.057487,121.778999 107.369324,122.043037 106.681160,122.307083 
	C106.577827,121.910294 106.474487,121.513496 106.371155,121.116707 
	C106.990334,121.116707 107.609520,121.116707 108.487175,121.315834 
z"/>
<path fill="#4BC0F4" opacity="1.000000" stroke="none" 
	d="
M114.668983,132.890671 
	C114.232376,133.355545 113.449394,133.734467 112.319427,134.059021 
	C112.755836,133.604660 113.539223,133.204697 114.668983,132.890671 
z"/>
<path fill="#4BC0F4" opacity="1.000000" stroke="none" 
	d="
M117.120224,131.926056 
	C116.897881,132.332657 116.300949,132.711472 115.337914,133.044983 
	C115.563087,132.632538 116.154358,132.265396 117.120224,131.926056 
z"/>
<path fill="#4BC0F4" opacity="1.000000" stroke="none" 
	d="
M118.611229,130.925598 
	C118.675674,131.228714 118.405075,131.557510 117.799072,131.929749 
	C117.734512,131.632553 118.005341,131.291916 118.611229,130.925598 
z"/>
<path fill="#F7F415" opacity="1.000000" stroke="none" 
	d="
M166.181274,94.816856 
	C162.047241,91.338867 158.170364,88.113449 153.927460,84.583519 
	C155.444183,84.401093 156.577026,84.264839 158.054382,84.087151 
	C157.593765,82.645660 157.239670,81.537468 156.901291,80.478508 
	C157.297668,80.331612 157.546204,80.190132 157.583328,80.232758 
	C161.387283,84.600777 165.175293,88.982674 168.964264,93.363739 
	C168.122314,93.932297 167.280365,94.500862 166.181274,94.816856 
z"/>
<path fill="#F1F1F1" opacity="1.000000" stroke="none" 
	d="
M168.082748,141.917084 
	C168.569077,142.256256 169.055389,142.595428 169.541702,142.934601 
	C169.352707,143.139221 169.163712,143.343857 168.974731,143.548492 
	C168.660904,143.233200 168.347061,142.917923 168.021957,142.292999 
	C168.010681,141.983368 168.082748,141.917084 168.082748,141.917084 
z"/>
<path fill="#F1F1F1" opacity="1.000000" stroke="none" 
	d="
M167.971329,142.012482 
	C167.816620,141.586868 167.701263,141.132111 167.585922,140.677368 
	C167.725235,140.935928 167.864532,141.194473 168.043289,141.685059 
	C168.082748,141.917084 168.010681,141.983368 167.971329,142.012482 
z"/>
</svg>