<svg version="1.1" id="Layer_1" xmlns="http://www.w3.org/2000/svg" xmlns:xlink="http://www.w3.org/1999/xlink" x="0px" y="0px"
	 width="100%" viewBox="0 0 143 131" enable-background="new 0 0 143 131" xml:space="preserve">
<path fill="#FCFCFD" opacity="1.000000" stroke="none" 
	d="
M144.000000,51.000000 
	C144.000000,78.308830 144.000000,105.117668 144.000000,131.963257 
	C96.401390,131.963257 48.802738,131.963257 1.102044,131.963257 
	C1.102044,88.441452 1.102044,44.882580 1.102044,1.161855 
	C48.666218,1.161855 96.333061,1.161855 144.000000,1.161855 
	C144.000000,17.530170 144.000000,34.015083 144.000000,51.000000 
M6.803947,78.499939 
	C6.804285,83.832207 6.764027,89.164833 6.812321,94.496666 
	C6.979148,112.915108 18.895323,124.806442 37.219044,124.821907 
	C61.047455,124.842010 84.875916,124.847000 108.704308,124.819855 
	C126.719948,124.799332 138.900070,112.709396 138.937057,94.798500 
	C138.975937,75.969124 138.954697,57.139603 138.944687,38.310150 
	C138.934357,18.904921 127.297485,7.046179 108.007210,6.979862 
	C84.512329,6.899089 61.016739,6.899679 37.521862,6.981692 
	C18.689299,7.047431 6.925595,18.780884 6.820223,37.508255 
	C6.745220,50.838428 6.804533,64.169350 6.803947,78.499939 
z"/>
<path fill="#243C66" opacity="1.000000" stroke="none" 
	d="
M6.803925,77.999939 
	C6.804533,64.169350 6.745220,50.838428 6.820223,37.508255 
	C6.925595,18.780884 18.689299,7.047431 37.521862,6.981692 
	C61.016739,6.899679 84.512329,6.899089 108.007210,6.979862 
	C127.297485,7.046179 138.934357,18.904921 138.944687,38.310150 
	C138.954697,57.139603 138.975937,75.969124 138.937057,94.798500 
	C138.900070,112.709396 126.719948,124.799332 108.704308,124.819855 
	C84.875916,124.847000 61.047455,124.842010 37.219044,124.821907 
	C18.895323,124.806442 6.979148,112.915108 6.812321,94.496666 
	C6.764027,89.164833 6.804285,83.832207 6.803925,77.999939 
M66.169556,74.933434 
	C66.180725,87.158600 66.191887,99.383759 66.088219,112.431564 
	C66.409332,118.013535 70.611526,116.899239 74.034874,116.957069 
	C77.416550,117.014191 79.190475,115.350655 78.886971,110.914062 
	C78.886971,97.810997 78.886971,84.707932 78.886971,71.645508 
	C96.028877,70.817307 100.175888,73.422966 106.368408,88.660736 
	C108.809799,94.668175 111.553368,100.605499 113.341225,106.810478 
	C115.005363,112.586021 118.512070,113.718376 123.790749,113.339348 
	C128.101440,113.029839 128.962662,111.330765 127.403946,107.571014 
	C124.538605,100.659599 121.795731,93.697426 118.999878,86.757187 
	C116.065155,79.472237 112.899719,72.342842 105.746162,67.875229 
	C116.680939,61.703865 120.203362,58.024399 121.928062,51.135597 
	C125.975555,34.969048 116.558441,21.426912 99.008331,20.393808 
	C81.595100,19.368763 64.061218,19.574842 46.615170,20.206161 
	C34.481651,20.645239 26.143471,28.357586 24.161287,38.773941 
	C21.795761,51.204762 26.666489,60.799400 38.297470,66.636322 
	C38.916233,66.946838 39.506111,67.314911 39.847134,67.507820 
	C37.203396,70.557625 34.036663,72.933899 32.603367,76.095917 
	C27.668884,86.981964 23.273144,98.116219 18.894413,109.243378 
	C18.498173,110.250305 19.310326,112.629173 20.221581,113.104134 
	C25.006453,115.598083 30.314039,113.373268 32.225845,108.377197 
	C34.603107,102.164757 36.736004,95.849480 39.357094,89.742867 
	C41.172718,85.512825 43.635036,81.560356 46.109352,78.108246 
	C46.547134,78.268860 47.247700,78.690475 47.384792,78.552444 
	C52.679398,73.221695 59.455105,74.058662 66.169556,74.933434 
z"/>
<path fill="#F8F9FA" opacity="1.000000" stroke="none" 
	d="
M66.203056,111.608925 
	C66.191887,99.383759 66.180725,87.158600 66.230042,74.185226 
	C66.095688,72.844269 66.057129,71.869362 65.682541,71.716187 
	C60.237377,69.489502 49.948708,72.524704 45.808403,77.483864 
	C43.635036,81.560356 41.172718,85.512825 39.357094,89.742867 
	C36.736004,95.849480 34.603107,102.164757 32.225845,108.377197 
	C30.314039,113.373268 25.006453,115.598083 20.221581,113.104134 
	C19.310326,112.629173 18.498173,110.250305 18.894413,109.243378 
	C23.273144,98.116219 27.668884,86.981964 32.603367,76.095917 
	C34.036663,72.933899 37.203396,70.557625 39.847134,67.507820 
	C39.506111,67.314911 38.916233,66.946838 38.297470,66.636322 
	C26.666489,60.799400 21.795761,51.204762 24.161287,38.773941 
	C26.143471,28.357586 34.481651,20.645239 46.615170,20.206161 
	C64.061218,19.574842 81.595100,19.368763 99.008331,20.393808 
	C116.558441,21.426912 125.975555,34.969048 121.928062,51.135597 
	C120.203362,58.024399 116.680939,61.703865 105.746162,67.875229 
	C112.899719,72.342842 116.065155,79.472237 118.999878,86.757187 
	C121.795731,93.697426 124.538605,100.659599 127.403946,107.571014 
	C128.962662,111.330765 128.101440,113.029839 123.790749,113.339348 
	C118.512070,113.718376 115.005363,112.586021 113.341225,106.810478 
	C111.553368,100.605499 108.809799,94.668175 106.368408,88.660736 
	C100.175888,73.422966 96.028877,70.817307 78.886971,71.645508 
	C78.886971,84.707932 78.886971,97.810997 78.595497,111.596603 
	C74.140137,114.407082 70.091255,114.458511 66.203056,111.608925 
M38.297150,37.466125 
	C35.675964,44.085232 35.146622,50.827770 40.474087,56.123413 
	C47.879543,63.484627 56.997833,61.826839 66.000793,59.804947 
	C66.000793,50.617298 66.000793,41.810902 66.224213,32.114307 
	C65.616783,31.375402 64.994858,29.985443 64.404167,29.998585 
	C58.674057,30.126095 52.813236,29.852230 47.276257,31.034668 
	C44.191799,31.693367 41.648865,34.887829 38.297150,37.466125 
M85.542862,30.063564 
	C83.442627,30.063564 81.342392,30.063564 79.149872,30.063564 
	C79.149872,40.759766 79.149872,50.847843 79.149872,60.992928 
	C84.858467,60.992928 90.358788,61.440094 95.757500,60.890030 
	C104.240082,60.025757 109.419342,54.098995 109.674538,45.927830 
	C109.938942,37.461720 105.416252,32.060810 96.463783,30.610407 
	C93.201233,30.081839 89.829643,30.226353 85.542862,30.063564 
z"/>
<path fill="#475875" opacity="1.000000" stroke="none" 
	d="
M45.958878,77.796051 
	C49.948708,72.524704 60.237377,69.489502 65.682541,71.716187 
	C66.057129,71.869362 66.095688,72.844269 66.153809,73.722298 
	C59.455105,74.058662 52.679398,73.221695 47.384792,78.552444 
	C47.247700,78.690475 46.547134,78.268860 45.958878,77.796051 
z"/>
<path fill="#485771" opacity="1.000000" stroke="none" 
	d="
M66.145638,112.020248 
	C70.091255,114.458511 74.140137,114.407082 78.606781,112.054474 
	C79.190475,115.350655 77.416550,117.014191 74.034874,116.957069 
	C70.611526,116.899239 66.409332,118.013535 66.145638,112.020248 
z"/>
<path fill="#273E67" opacity="1.000000" stroke="none" 
	d="
M86.025330,30.063675 
	C89.829643,30.226353 93.201233,30.081839 96.463783,30.610407 
	C105.416252,32.060810 109.938942,37.461720 109.674538,45.927830 
	C109.419342,54.098995 104.240082,60.025757 95.757500,60.890030 
	C90.358788,61.440094 84.858467,60.992928 79.149872,60.992928 
	C79.149872,50.847843 79.149872,40.759766 79.149872,30.063564 
	C81.342392,30.063564 83.442627,30.063564 86.025330,30.063675 
M88.992241,49.394215 
	C91.131302,52.487041 93.960548,53.476055 97.089279,51.235435 
	C99.978905,49.166054 100.996094,45.805683 99.039696,42.882980 
	C97.812653,41.049881 94.870163,39.110668 92.895737,39.299004 
	C89.040215,39.666752 87.792068,43.041977 88.089539,46.768333 
	C88.140976,47.412693 88.445969,48.036808 88.992241,49.394215 
z"/>
<path fill="#243B66" opacity="1.000000" stroke="none" 
	d="
M66.000793,33.004505 
	C66.000793,41.810902 66.000793,50.617298 66.000793,59.804947 
	C56.997833,61.826839 47.879543,63.484627 40.474087,56.123413 
	C35.146622,50.827770 35.675964,44.085232 38.966541,37.214088 
	C47.820923,31.623747 57.032013,33.121262 66.000793,33.004505 
M57.516815,48.718258 
	C57.704147,47.581066 58.122997,46.425968 58.036671,45.309940 
	C57.743286,41.516945 55.873035,38.762398 51.810291,39.058903 
	C47.782135,39.352879 45.959385,42.545372 46.438931,46.105225 
	C46.721931,48.206070 48.598675,51.219360 50.339085,51.693966 
	C52.251305,52.215431 54.830086,50.292591 57.516815,48.718258 
z"/>
<path fill="#3F506F" opacity="1.000000" stroke="none" 
	d="
M66.112503,32.559406 
	C57.032013,33.121262 47.820923,31.623747 39.248909,36.950790 
	C41.648865,34.887829 44.191799,31.693367 47.276257,31.034668 
	C52.813236,29.852230 58.674057,30.126095 64.404167,29.998585 
	C64.994858,29.985443 65.616783,31.375402 66.112503,32.559406 
z"/>
<path fill="#F4F5F7" opacity="1.000000" stroke="none" 
	d="
M88.813049,49.032246 
	C88.445969,48.036808 88.140976,47.412693 88.089539,46.768333 
	C87.792068,43.041977 89.040215,39.666752 92.895737,39.299004 
	C94.870163,39.110668 97.812653,41.049881 99.039696,42.882980 
	C100.996094,45.805683 99.978905,49.166054 97.089279,51.235435 
	C93.960548,53.476055 91.131302,52.487041 88.813049,49.032246 
z"/>
<path fill="#F6F6F8" opacity="1.000000" stroke="none" 
	d="
M57.317627,49.076500 
	C54.830086,50.292591 52.251305,52.215431 50.339085,51.693966 
	C48.598675,51.219360 46.721931,48.206070 46.438931,46.105225 
	C45.959385,42.545372 47.782135,39.352879 51.810291,39.058903 
	C55.873035,38.762398 57.743286,41.516945 58.036671,45.309940 
	C58.122997,46.425968 57.704147,47.581066 57.317627,49.076500 
z"/>
</svg>